<?xml version="1.0" standalone="no"?>
<!DOCTYPE svg PUBLIC "-//W3C//DTD SVG 20010904//EN"
 "http://www.w3.org/TR/2001/REC-SVG-20010904/DTD/svg10.dtd">
<svg version="1.0" xmlns="http://www.w3.org/2000/svg"
 width="1024.000000pt" height="1024.000000pt" viewBox="0 0 1024.000000 1024.000000"
 preserveAspectRatio="xMidYMid meet">
<metadata>
Created by potrace 1.16, written by Peter Selinger 2001-2019
</metadata>
<g transform="translate(0.000000,1024.000000) scale(0.100000,-0.100000)"
fill="#000000" stroke="none">
<path d="M1820 8256 c-105 -30 -198 -108 -243 -203 l-22 -48 -3 -2555 c-2
-2818 -7 -2605 60 -2706 38 -56 114 -116 178 -141 42 -17 138 -18 1492 -21
l1448 -2 92 -71 c464 -355 1086 -542 1657 -500 603 45 1118 275 1543 689 312
303 506 617 637 1028 79 245 114 491 114 784 -1 203 -23 403 -60 535 -15 54
-17 168 -22 1115 -6 980 -7 1058 -24 1100 -43 109 -128 195 -237 242 l-55 23
-1830 5 -1830 5 -48 24 c-37 18 -106 85 -290 280 -332 352 -338 358 -415 394
l-67 32 -1015 2 c-792 1 -1025 -1 -1060 -11z m4706 -1507 c347 -33 731 -168
1019 -356 570 -373 948 -1015 1006 -1708 47 -558 -116 -1128 -450 -1575 -69
-92 -281 -312 -378 -391 -390 -320 -865 -489 -1373 -489 -793 1 -1508 397
-1922 1066 -326 527 -423 1148 -273 1745 135 536 493 1053 926 1341 422 281
951 415 1445 367z"/>
<path d="M6055 6335 c-551 -84 -999 -372 -1282 -826 -417 -667 -387 -1497 77
-2129 84 -114 283 -309 400 -392 246 -174 553 -293 863 -334 149 -20 414 -14
557 11 551 98 1024 454 1284 965 89 175 150 359 188 570 21 118 17 509 -6 635
-39 211 -106 397 -214 588 -269 477 -699 789 -1237 898 -140 28 -487 36 -630
14z m600 -592 c9 -21 91 -231 182 -468 91 -236 254 -659 363 -940 320 -824
340 -877 340 -886 0 -5 -128 -9 -284 -9 l-283 0 -32 83 c-17 45 -53 141 -80
212 l-48 130 -476 3 -475 2 -32 -82 c-17 -46 -54 -143 -82 -215 l-51 -133
-285 0 c-223 0 -283 3 -279 13 3 6 45 116 94 242 50 127 138 354 197 505 278
709 581 1487 605 1553 l11 27 300 0 300 0 15 -37z"/>
<path d="M6175 4753 c-81 -203 -150 -376 -153 -385 -4 -17 16 -18 313 -18 297
0 317 1 313 18 -19 70 -303 752 -313 752 -7 0 -75 -154 -160 -367z"/>
</g>
</svg>
